<svg width="237" height="92" viewBox="0 0 237 92" fill="none" xmlns="http://www.w3.org/2000/svg">
<path d="M14.6 77.12C13.384 77.312 12.264 77.408 11.24 77.408C10.216 77.472 8.712 77.248 6.728 76.736C5.704 76.416 4.968 76.032 4.52 75.584C4.136 75.136 3.464 74.304 2.504 73.088C1.8 72.064 1.288 71.104 0.968 70.208C0.712 69.376 0.68 68.704 0.872 68.192C1.064 67.744 1.48 67.616 2.12 67.808C2.312 67.872 2.6 68.064 2.984 68.384C3.432 68.768 3.848 69.216 4.232 69.728C5.128 70.688 6.216 71.328 7.496 71.648C8.776 71.968 10.472 72 12.584 71.744C13.48 71.552 14.568 71.264 15.848 70.88C17.128 70.56 18.376 70.144 19.592 69.632C20.808 69.12 21.768 68.608 22.472 68.096C25.864 65.792 28.584 63.968 30.632 62.624C32.68 61.28 33.704 60.608 33.704 60.608C33.832 60.352 34.056 60.16 34.376 60.032C34.76 59.84 35.208 59.648 35.72 59.456C36.104 59.072 36.712 58.464 37.544 57.632C38.44 56.8 39.272 55.968 40.04 55.136C40.872 54.304 41.384 53.824 41.576 53.696C41.704 53.12 41.832 52.672 41.96 52.352C42.088 51.968 42.152 51.584 42.152 51.2C42.664 50.688 43.336 49.632 44.168 48.032C45.064 46.368 45.96 44.544 46.856 42.56C47.752 40.512 48.392 38.656 48.776 36.992C49.672 32.512 49.896 28.736 49.448 25.664C49 22.592 48.072 19.968 46.664 17.792C45.32 15.552 43.624 13.568 41.576 11.84C40.872 11.264 39.88 10.656 38.6 10.016C37.384 9.312 36.104 8.704 34.76 8.192C33.416 7.68 32.232 7.264 31.208 6.944C30.248 6.624 29.672 6.496 29.48 6.56C29.224 6.62399 28.68 7.64799 27.848 9.632C27.08 11.552 26.152 14.016 25.064 17.024C23.976 20.032 22.792 23.232 21.512 26.624C20.296 30.016 19.144 33.216 18.056 36.224C17.672 37.44 17.256 38.72 16.808 40.064C16.36 41.408 15.976 42.592 15.656 43.616C15.336 44.576 15.176 45.216 15.176 45.536C14.472 46.624 13.896 48.064 13.448 49.856C13.064 51.648 12.616 54.624 12.104 58.784C11.528 60.96 11.112 62.624 10.856 63.776C10.6 64.864 10.344 65.376 10.088 65.312C10.088 65.312 10.056 65.344 9.992 65.408C9.992 65.408 9.896 65.504 9.704 65.696C9.704 66.08 9.448 66.272 8.936 66.272C8.424 66.272 7.816 66.144 7.112 65.888C6.472 65.568 5.96 65.216 5.576 64.832C5.384 64.128 5.256 63.456 5.192 62.816C5.192 62.176 5.448 60.928 5.96 59.072C6.28 57.856 6.664 56.384 7.112 54.656C7.624 52.864 8.168 51.04 8.744 49.184C9.32 47.264 9.864 45.504 10.376 43.904C10.888 42.304 11.272 41.088 11.528 40.256C11.976 39.168 12.616 37.12 13.448 34.112C13.96 32.448 14.472 30.784 14.984 29.12C15.56 27.456 16.104 25.984 16.616 24.704C17.128 23.36 17.48 22.496 17.672 22.112C17.992 21.28 18.472 19.872 19.112 17.888C19.752 15.904 20.584 13.696 21.608 11.264L22.28 8.096L21.224 7.616C20.456 7.872 19.848 7.968 19.4 7.904C19.016 7.776 18.76 7.68 18.632 7.616C18.248 7.744 17.704 7.648 17 7.328C16.296 7.008 15.656 6.592 15.08 6.08C14.568 5.568 14.248 5.12 14.12 4.736C13.992 4.48 13.896 4.16 13.832 3.776C13.832 3.328 13.832 3.10399 13.832 3.10399C13.896 2.72 14.376 2.368 15.272 2.048C16.168 1.664 17.32 1.344 18.728 1.088C20.2 0.831997 21.768 0.671997 23.432 0.607998C25.16 0.479996 26.824 0.479996 28.424 0.607998C30.088 0.735996 31.656 1.088 33.128 1.664C34.6 2.24 36.2 2.848 37.928 3.488C39.976 4.256 42.12 5.6 44.36 7.51999C46.664 9.376 48.744 11.584 50.6 14.144C52.52 16.704 53.8 19.392 54.44 22.208C54.632 22.976 54.824 24.064 55.016 25.472C55.208 26.88 55.304 28.256 55.304 29.6C55.368 30.88 55.24 31.712 54.92 32.096C54.792 32.352 54.696 32.672 54.632 33.056C54.632 33.376 54.76 33.6 55.016 33.728C54.952 33.92 54.728 34.656 54.344 35.936C53.96 37.152 53.608 38.208 53.288 39.104C53.16 40.768 52.776 42.496 52.136 44.288C51.496 46.08 50.792 47.776 50.024 49.376C49.256 50.912 48.552 52.224 47.912 53.312C47.656 53.312 47.4 53.376 47.144 53.504C46.952 53.568 46.984 53.632 47.24 53.696C47.24 54.016 46.888 54.624 46.184 55.52C45.928 55.712 45.512 56.192 44.936 56.96C44.424 57.664 44.008 58.144 43.688 58.4C43.624 58.848 43.432 59.232 43.112 59.552C42.792 59.808 42.504 59.936 42.248 59.936C42.248 59.936 42.184 59.936 42.056 59.936C41.992 59.936 41.96 60.064 41.96 60.32C41.448 61.088 40.648 62.016 39.56 63.104C38.472 64.128 37.224 65.216 35.816 66.368C34.472 67.456 33.064 68.48 31.592 69.44C30.184 70.4 28.84 71.136 27.56 71.648C26.92 72.096 26.248 72.448 25.544 72.704C24.84 73.024 24.168 73.344 23.528 73.664C23.208 73.92 22.504 74.272 21.416 74.72C20.328 75.232 19.144 75.712 17.864 76.16C16.648 76.608 15.56 76.928 14.6 77.12ZM58.772 64.544C58.516 64.032 58.196 63.648 57.812 63.392C57.428 63.072 57.236 62.784 57.236 62.528C57.236 62.272 57.204 62.016 57.14 61.76C57.14 61.44 57.012 61.152 56.756 60.896C56.436 60.512 56.468 59.648 56.852 58.304C57.236 56.896 57.876 55.2 58.772 53.216C59.668 51.168 60.724 49.024 61.94 46.784C62.452 46.272 62.964 45.6 63.476 44.768C63.988 43.936 64.372 43.392 64.628 43.136C64.628 42.88 64.724 42.656 64.916 42.464C65.108 42.208 65.332 42.08 65.588 42.08V41.504C65.588 41.184 65.876 40.64 66.452 39.872C67.092 39.104 67.86 38.272 68.756 37.376C69.652 36.416 70.58 35.52 71.54 34.688C72.5 33.792 73.3 33.152 73.94 32.768C75.284 31.872 76.66 31.328 78.068 31.136C79.54 30.944 80.788 31.264 81.812 32.096C82.004 32.288 82.324 32.608 82.772 33.056C83.22 33.504 83.732 34.016 84.308 34.592C84.948 35.104 85.588 35.648 86.228 36.224L89.78 39.392L88.052 44.192C87.22 46.752 86.996 48.992 87.38 50.912C87.828 52.832 88.468 54.496 89.3 55.904C89.62 56.608 90.26 57.28 91.22 57.92C92.244 58.56 93.204 58.944 94.1 59.072C94.612 59.136 95.092 59.328 95.54 59.648C95.988 59.968 96.212 60.48 96.212 61.184C96.212 61.824 96.084 62.336 95.828 62.72C95.572 63.104 95.124 63.36 94.484 63.488C92.372 63.744 90.388 63.232 88.532 61.952C86.74 60.672 85.076 58.56 83.54 55.616C83.284 55.232 82.932 54.528 82.484 53.504C82.1 52.416 81.876 51.712 81.812 51.392C81.556 51.712 81.076 52.32 80.372 53.216C79.668 54.048 79.124 54.656 78.74 55.04C74.196 59.648 70.26 62.752 66.932 64.352C63.668 65.888 60.948 65.952 58.772 64.544ZM62.228 59.168C62.228 59.616 62.9 59.616 64.244 59.168C65.652 58.656 67.156 57.76 68.756 56.48C70.932 54.624 73.108 52.576 75.284 50.336C77.524 48.096 79.316 46.016 80.66 44.096L82.772 40.64C82.132 39.168 81.428 38.176 80.66 37.664C79.956 37.088 79.348 36.8 78.836 36.8C78.004 36.8 76.756 37.568 75.092 39.104C73.492 40.64 71.764 42.688 69.908 45.248C68.052 47.808 66.292 50.624 64.628 53.696C63.988 54.976 63.412 56.224 62.9 57.44C62.452 58.592 62.228 59.168 62.228 59.168ZM104.806 65.024C103.846 64.896 103.014 64.224 102.31 63.008C101.67 61.728 101.286 60.576 101.158 59.552C101.222 59.04 101.286 58.304 101.35 57.344C101.478 56.384 101.606 55.392 101.734 54.368C101.99 53.152 102.342 51.68 102.79 49.952C103.238 48.16 103.686 46.368 104.134 44.576C104.646 42.784 105.094 41.248 105.478 39.968C105.862 38.688 106.118 37.92 106.246 37.664C106.566 37.152 107.078 37.024 107.782 37.28C108.486 37.536 109.062 37.92 109.51 38.432C109.894 38.944 110.118 39.552 110.182 40.256C110.31 40.96 110.214 41.984 109.894 43.328C109.638 44.672 109.126 46.656 108.358 49.28C107.654 51.84 107.11 53.92 106.726 55.52C106.406 57.056 106.278 58.688 106.342 60.416C106.086 62.592 105.894 63.936 105.766 64.448C105.638 64.896 105.318 65.088 104.806 65.024ZM115.846 26.72C115.59 26.912 115.334 27.008 115.078 27.008C114.886 26.944 114.534 26.752 114.022 26.432C113.574 26.368 112.998 26.08 112.294 25.568C111.654 24.992 111.078 24.416 110.566 23.84C110.118 23.2 109.894 22.816 109.894 22.688C109.83 22.048 109.862 21.248 109.99 20.288C110.182 19.264 110.534 18.368 111.046 17.6C111.558 16.768 112.294 16.32 113.254 16.256C113.51 16.256 113.734 16.288 113.926 16.352C114.118 16.416 114.694 16.64 115.654 17.024C116.166 17.984 116.678 19.072 117.19 20.288C117.702 21.44 117.926 22.592 117.862 23.744C117.798 24.832 117.126 25.824 115.846 26.72ZM120.793 68C119.577 68.32 118.585 68.064 117.817 67.232C117.113 66.4 116.697 65.12 116.569 63.392C116.441 61.664 116.633 59.616 117.145 57.248C117.465 56.48 117.721 55.744 117.913 55.04C118.105 54.272 118.201 53.664 118.201 53.216C118.329 52.576 118.585 51.648 118.969 50.432C119.353 49.152 119.769 47.84 120.217 46.496C120.665 45.152 121.081 43.968 121.465 42.944C121.913 41.856 122.201 41.184 122.329 40.928C122.585 40.928 122.809 40.704 123.001 40.256C123.193 39.808 123.289 39.36 123.289 38.912C123.289 38.4 123.385 37.824 123.577 37.184C123.833 36.544 124.089 36.096 124.345 35.84C124.345 35.52 124.409 35.168 124.537 34.784C124.729 34.336 124.825 33.984 124.825 33.728C124.825 33.472 124.889 33.216 125.017 32.96C125.209 32.704 125.305 32.448 125.305 32.192C125.753 31.36 126.329 30.048 127.033 28.256C127.801 26.4 128.601 24.352 129.433 22.112C130.329 19.872 131.161 17.664 131.929 15.488C132.697 13.312 133.305 11.488 133.753 10.016C134.265 8.48 134.521 7.552 134.521 7.232C134.521 6.72 134.649 6.336 134.905 6.08C135.161 5.824 135.545 5.696 136.057 5.696C136.249 5.504 136.473 5.376 136.729 5.31199C137.049 5.248 137.337 5.216 137.593 5.216C137.593 5.216 137.721 5.344 137.977 5.6C138.233 5.856 138.617 6.24 139.129 6.752C139.641 7.2 139.929 7.712 139.993 8.288C140.121 8.864 140.185 9.536 140.185 10.304C140.185 11.136 140.089 11.872 139.897 12.512C139.705 13.152 139.321 14.08 138.745 15.296C138.169 16.512 137.273 18.4 136.057 20.96C135.545 22.24 135.001 23.456 134.425 24.608C133.849 25.696 133.561 26.368 133.561 26.624C133.561 26.88 133.433 27.264 133.177 27.776C132.985 28.288 132.761 28.928 132.505 29.696C132.249 30.208 131.897 30.976 131.449 32C131.001 32.96 130.521 34.016 130.009 35.168C129.561 36.256 129.177 37.216 128.857 38.048C128.537 38.816 128.377 39.264 128.377 39.392C128.377 39.648 128.345 39.904 128.281 40.16C128.281 40.416 128.153 40.672 127.897 40.928C127.641 40.928 127.481 41.12 127.417 41.504C127.417 41.824 127.417 41.984 127.417 41.984C127.417 42.624 126.905 44.32 125.881 47.072C124.857 50.592 123.897 53.824 123.001 56.768C122.169 59.712 121.753 62.08 121.753 63.872C121.753 65.408 121.721 66.432 121.657 66.944C121.593 67.392 121.305 67.744 120.793 68ZM132.595 91.136C131.187 91.392 130.227 91.424 129.715 91.232C129.203 91.04 128.499 90.72 127.603 90.272C126.899 89.76 126.355 89.376 125.971 89.12C125.587 88.864 125.395 88.608 125.395 88.352C125.395 88.16 125.459 87.936 125.587 87.68C125.715 87.488 125.939 87.296 126.259 87.104C126.643 86.976 127.155 86.912 127.795 86.912C128.243 87.168 128.979 87.296 130.003 87.296C131.091 87.296 131.763 87.168 132.019 86.912C132.019 86.912 132.307 86.72 132.883 86.336C133.523 86.016 134.355 85.76 135.379 85.568C137.363 84.608 139.123 83.392 140.659 81.92C142.195 80.448 143.667 78.528 145.075 76.16C145.651 75.264 146.259 74.208 146.899 72.992C147.539 71.84 147.987 70.688 148.243 69.536C148.755 68.256 149.331 66.528 149.971 64.352C150.675 62.176 151.283 60.032 151.795 57.92C152.307 55.744 152.595 54.112 152.659 53.024C153.043 49.44 153.651 46.144 154.483 43.136C155.379 40.064 156.147 36.64 156.787 32.864C157.171 31.968 157.459 31.456 157.651 31.328C157.843 31.136 158.259 31.04 158.899 31.04C159.603 31.04 160.115 31.104 160.435 31.232C160.819 31.296 161.235 31.68 161.683 32.384C162.323 33.6 162.547 35.04 162.355 36.704C162.227 38.304 161.747 39.712 160.915 40.928C160.275 41.824 159.699 43.232 159.187 45.152C158.739 47.008 158.291 49.344 157.843 52.16C157.523 53.568 157.171 55.232 156.787 57.152C156.467 59.008 156.115 61.088 155.731 63.392C155.475 64.032 155.123 65.024 154.675 66.368C154.227 67.648 153.939 68.672 153.811 69.44C153.747 69.696 153.555 70.208 153.235 70.976C152.915 71.744 152.595 72.48 152.275 73.184C151.955 73.952 151.731 74.464 151.603 74.72C149.107 79.904 146.259 83.872 143.059 86.624C139.859 89.376 136.371 90.88 132.595 91.136ZM139.891 63.296C139.187 63.296 138.451 62.912 137.683 62.144C136.979 61.376 136.499 60.768 136.243 60.32C135.987 59.68 135.667 59.072 135.283 58.496C134.899 57.92 134.611 57.216 134.419 56.384C134.291 55.552 134.355 54.528 134.611 53.312C134.867 52.48 135.219 51.296 135.667 49.76C136.179 48.16 136.723 46.432 137.299 44.576C137.939 42.72 138.579 40.896 139.219 39.104C139.923 37.248 140.563 35.616 141.139 34.208C141.715 32.736 142.227 31.68 142.675 31.04C143.059 30.528 143.475 30.208 143.923 30.08C144.435 29.952 144.947 30.016 145.459 30.272C145.971 30.464 146.419 30.88 146.803 31.52C147.507 32.416 147.795 33.184 147.667 33.824C147.539 34.464 146.963 35.712 145.939 37.568C145.683 38.272 145.363 39.04 144.979 39.872C144.595 40.64 144.403 41.152 144.403 41.408C144.339 41.536 144.211 41.984 144.019 42.752C143.891 43.456 143.731 44.128 143.539 44.768C143.347 45.408 143.155 45.728 142.963 45.728C142.707 45.984 142.419 46.72 142.099 47.936C141.779 49.088 141.491 50.4 141.235 51.872C140.979 53.28 140.819 54.528 140.755 55.616C140.691 56.64 140.787 57.152 141.043 57.152C143.027 57.152 145.075 56.384 147.187 54.848C149.363 53.312 151.539 51.072 153.715 48.128L155.347 54.944C154.451 55.392 153.619 55.872 152.851 56.384C152.083 56.832 151.379 57.376 150.739 58.016C150.547 58.272 150.099 58.624 149.395 59.072C148.691 59.52 147.987 59.936 147.283 60.32C146.643 60.64 146.227 60.8 146.035 60.8C146.035 60.8 145.939 60.832 145.747 60.896C145.619 60.896 145.555 61.024 145.555 61.28C145.555 61.408 145.139 61.664 144.307 62.048C143.475 62.368 142.611 62.656 141.715 62.912C140.819 63.168 140.211 63.296 139.891 63.296ZM171.458 63.776C171.202 63.776 170.818 63.616 170.306 63.296C169.858 62.912 169.506 62.592 169.25 62.336C168.802 61.824 168.514 61.312 168.386 60.8C168.322 60.288 168.29 59.136 168.29 57.344C168.29 55.296 168.706 53.088 169.538 50.72C170.37 48.288 171.778 44.896 173.762 40.544L176.93 33.824C177.186 33.312 177.41 32.928 177.602 32.672C177.858 32.416 178.082 32.16 178.274 31.904C178.53 31.904 178.754 31.904 178.946 31.904C179.138 31.904 179.234 31.904 179.234 31.904C179.746 31.904 180.258 32.224 180.77 32.864C181.282 33.44 181.666 34.08 181.922 34.784C181.922 35.616 181.794 36.48 181.538 37.376C181.346 38.272 180.578 39.616 179.234 41.408C178.786 42.112 178.178 43.296 177.41 44.96C176.706 46.624 176.226 48.064 175.97 49.28C175.906 49.344 175.778 49.632 175.586 50.144C175.394 50.592 175.17 51.104 174.914 51.68C174.722 52.256 174.498 52.8 174.242 53.312L173.762 55.424L180.194 48.8C183.202 45.792 185.634 43.648 187.49 42.368C189.346 41.088 190.818 40.544 191.906 40.736C192.994 40.928 193.922 41.792 194.69 43.328C195.138 44.032 195.458 44.672 195.65 45.248C195.906 45.76 196.066 46.464 196.13 47.36C196.194 48.256 196.13 49.6 195.938 51.392V57.344C196.898 57.088 197.666 56.864 198.242 56.672C198.818 56.416 199.426 56.16 200.066 55.904C200.642 55.648 201.314 55.424 202.082 55.232C202.85 54.976 203.81 54.816 204.962 54.752C204.898 55.584 204.61 56.48 204.098 57.44C203.586 58.336 202.946 59.2 202.178 60.032C201.41 60.864 200.546 61.536 199.586 62.048C198.69 62.56 197.794 62.816 196.898 62.816C196.066 62.816 195.138 62.4 194.114 61.568C193.09 60.736 192.354 59.808 191.906 58.784C191.65 58.08 191.49 57.312 191.426 56.48C191.426 55.648 191.426 54.112 191.426 51.872V48.32C191.426 47.296 191.106 47.008 190.466 47.456C189.89 47.84 189.41 48.192 189.026 48.512C188.066 49.344 187.042 50.304 185.954 51.392C184.93 52.48 183.874 53.6 182.786 54.752C179.842 57.824 177.378 60.096 175.394 61.568C173.474 63.04 172.162 63.776 171.458 63.776ZM216.789 65.696C214.293 64.672 212.661 63.264 211.893 61.472C211.189 59.616 211.061 56.768 211.509 52.928C211.637 50.944 211.701 49.632 211.701 48.992C211.701 48.352 211.349 47.712 210.645 47.072C210.453 46.816 210.101 46.464 209.589 46.016C209.141 45.568 208.949 45.184 209.013 44.864C208.949 44.416 208.981 43.936 209.109 43.424C209.237 42.848 209.429 42.56 209.685 42.56C209.941 42.56 210.197 42.496 210.453 42.368C210.773 42.24 211.061 42.24 211.317 42.368C211.573 42.368 211.861 42.4 212.181 42.464C212.501 42.528 212.661 42.688 212.661 42.944C212.917 43.392 213.333 43.456 213.909 43.136C214.485 42.752 215.093 41.92 215.733 40.64C216.373 39.616 217.205 38.592 218.229 37.568C219.317 36.544 220.373 35.616 221.397 34.784C222.485 33.888 223.381 33.248 224.085 32.864C224.405 32.736 224.885 32.576 225.525 32.384C226.165 32.192 226.837 32.032 227.541 31.904C228.309 31.776 228.949 31.744 229.461 31.808C230.613 31.872 231.573 32.192 232.341 32.768C233.173 33.344 233.941 34.016 234.645 34.784C235.477 35.36 235.989 36.128 236.181 37.088C236.437 38.048 236.501 39.072 236.373 40.16C236.245 41.248 235.957 42.24 235.509 43.136C235.317 43.776 234.773 44.544 233.877 45.44C232.981 46.336 231.957 47.2 230.805 48.032C229.653 48.864 228.597 49.472 227.637 49.856C226.805 50.048 225.717 50.208 224.373 50.336C223.093 50.464 221.877 50.528 220.725 50.528C219.637 50.464 218.901 50.336 218.517 50.144C218.069 49.888 217.717 50.24 217.461 51.2C217.205 52.16 217.013 53.536 216.885 55.328C216.757 56.736 216.757 57.76 216.885 58.4C217.013 59.04 217.141 59.488 217.269 59.744C217.717 60.192 218.325 60.768 219.093 61.472C219.925 62.112 221.077 62.208 222.549 61.76C223.765 61.44 224.949 60.608 226.101 59.264C227.317 57.92 228.437 56.832 229.461 56C229.717 55.552 230.133 55.296 230.709 55.232C231.349 55.104 232.021 55.136 232.725 55.328C233.429 55.776 233.717 56.32 233.589 56.96C233.525 57.536 233.205 58.432 232.629 59.648C232.437 60.096 231.989 60.672 231.285 61.376C230.645 62.016 229.909 62.688 229.077 63.392C228.309 64.032 227.605 64.544 226.965 64.928C225.045 65.952 223.253 66.496 221.589 66.56C219.925 66.56 218.325 66.272 216.789 65.696ZM222.453 46.208C223.861 45.888 224.981 45.664 225.813 45.536C226.645 45.408 227.445 45.056 228.213 44.48C228.981 43.84 229.941 42.656 231.093 40.928C231.349 40.224 231.413 39.52 231.285 38.816C231.221 38.112 231.061 37.632 230.805 37.376C230.229 36.736 229.525 36.544 228.693 36.8C227.925 36.992 227.189 37.344 226.485 37.856C226.037 38.048 225.365 38.528 224.469 39.296C223.637 40 222.805 40.832 221.973 41.792C221.141 42.688 220.469 43.52 219.957 44.288C219.445 45.056 219.317 45.504 219.573 45.632C219.445 45.888 219.797 46.048 220.629 46.112C221.525 46.176 222.133 46.208 222.453 46.208Z" fill="white"/>
</svg>
